<svg width="24" height="24" viewBox="0 0 24 24" fill="none" xmlns="http://www.w3.org/2000/svg">
<path d="M10.1801 17.008C10.3001 17.008 10.3911 17.004 10.4511 16.996C10.5215 16.9818 10.5849 16.944 10.6311 16.889C10.6911 16.826 10.7211 16.735 10.7211 16.615L10.7171 16.058C10.7141 15.703 10.7131 15.421 10.7131 15.214L10.5251 15.247C10.3746 15.2707 10.2223 15.2801 10.0701 15.275C9.87885 15.2716 9.68821 15.2526 9.50009 15.218C9.30045 15.1808 9.11258 15.0964 8.95209 14.972C8.78385 14.8447 8.6583 14.6693 8.59209 14.469L8.51009 14.28C8.44112 14.1312 8.3545 13.9912 8.25209 13.863C8.16015 13.7316 8.03763 13.6245 7.89509 13.551L7.83809 13.511C7.79884 13.4821 7.76324 13.4485 7.73209 13.411C7.70185 13.3769 7.67691 13.3385 7.65809 13.297C7.64209 13.259 7.65509 13.227 7.69809 13.203C7.77356 13.1727 7.85497 13.16 7.93609 13.166L8.10009 13.191C8.21009 13.212 8.34509 13.278 8.50609 13.387C8.66609 13.497 8.79909 13.638 8.90309 13.813C9.02909 14.037 9.18009 14.208 9.35809 14.325C9.51521 14.4358 9.70187 14.4971 9.89409 14.501C10.0741 14.501 10.2301 14.488 10.3611 14.461C10.4886 14.4346 10.6125 14.3929 10.7301 14.337C10.7791 13.972 10.9121 13.69 11.1301 13.494C10.8471 13.466 10.5666 13.4165 10.2911 13.346C10.0221 13.2719 9.76341 13.1644 9.52109 13.026C9.26732 12.8883 9.04307 12.7021 8.86109 12.478C8.68709 12.259 8.54409 11.973 8.43109 11.618C8.31327 11.2192 8.25696 10.8048 8.26409 10.389C8.26409 9.72901 8.48009 9.16601 8.91109 8.70201C8.70909 8.20501 8.72809 7.64801 8.96809 7.03101C9.12709 6.98101 9.36209 7.01801 9.67309 7.14101C9.98409 7.26401 10.2131 7.36901 10.3571 7.45701C10.5021 7.54401 10.6171 7.61701 10.7051 7.67701C11.2173 7.53476 11.7465 7.46343 12.2781 7.46501C12.8181 7.46501 13.3431 7.53501 13.8511 7.67801L14.1611 7.48101C14.3751 7.35101 14.6261 7.23001 14.9151 7.12101C15.2051 7.01101 15.4261 6.98101 15.5791 7.03101C15.8251 7.64801 15.8471 8.20501 15.6441 8.70101C16.0761 9.16601 16.2921 9.72801 16.2921 10.389C16.2921 10.853 16.2361 11.264 16.1241 11.622C16.0121 11.98 15.8671 12.266 15.6901 12.482C15.5051 12.7039 15.2798 12.8889 15.0261 13.027C14.7838 13.1654 14.5251 13.2729 14.2561 13.347C13.9802 13.4173 13.6994 13.4664 13.4161 13.494C13.7001 13.739 13.8421 14.127 13.8421 14.657V16.614C13.8421 16.707 13.8561 16.782 13.8831 16.84C13.8958 16.8676 13.9139 16.8924 13.9365 16.9129C13.959 16.9333 13.9854 16.949 14.0141 16.959C14.0741 16.98 14.1281 16.994 14.1741 16.999C14.2211 17.005 14.2871 17.008 14.3741 17.008H10.1811H10.1801Z" fill="#1019FA"/>
<path d="M6.00012 4C5.46969 4 4.96098 4.21071 4.58591 4.58579C4.21084 4.96086 4.00012 5.46957 4.00012 6V18C4.00012 18.5304 4.21084 19.0391 4.58591 19.4142C4.96098 19.7893 5.46969 20 6.00012 20H18.0001C18.5306 20 19.0393 19.7893 19.4143 19.4142C19.7894 19.0391 20.0001 18.5304 20.0001 18V6C20.0001 5.46957 19.7894 4.96086 19.4143 4.58579C19.0393 4.21071 18.5306 4 18.0001 4H6.00012ZM6.00012 2H18.0001C19.061 2 20.0784 2.42143 20.8285 3.17157C21.5787 3.92172 22.0001 4.93913 22.0001 6V18C22.0001 19.0609 21.5787 20.0783 20.8285 20.8284C20.0784 21.5786 19.061 22 18.0001 22H6.00012C4.93926 22 3.92184 21.5786 3.17169 20.8284C2.42155 20.0783 2.00012 19.0609 2.00012 18V6C2.00012 4.93913 2.42155 3.92172 3.17169 3.17157C3.92184 2.42143 4.93926 2 6.00012 2V2Z" fill="#1019FA"/>
</svg>
