<svg width="18" height="24" viewBox="0 0 18 24" fill="none" xmlns="http://www.w3.org/2000/svg">
<g clip-path="url(#clip0_296:5)">
<path d="M5.82766 18.553C5.82766 18.553 4.91219 19.0854 6.47919 19.2655C8.37762 19.4821 9.34782 19.4511 11.4399 19.0551C11.4399 19.0551 11.99 19.4 12.758 19.6987C8.06826 21.7087 2.144 19.5823 5.82766 18.553" fill="#5382A1"/>
<path d="M5.2546 15.9301C5.2546 15.9301 4.2278 16.6902 5.79599 16.8524C7.82392 17.0616 9.4254 17.0787 12.1966 16.5451C12.1966 16.5451 12.5799 16.9337 13.1826 17.1462C7.51233 18.8043 1.19666 17.2769 5.2546 15.9301" fill="#5382A1"/>
<path d="M10.0858 11.4808C11.2414 12.8112 9.78219 14.0084 9.78219 14.0084C9.78219 14.0084 12.7164 12.4937 11.3688 10.5969C10.1103 8.82811 9.14508 7.94913 14.3701 4.91888C14.3701 4.91888 6.16859 6.96721 10.0858 11.4807" fill="#E76F00"/>
<path d="M16.2885 20.4931C16.2885 20.4931 16.9659 21.0513 15.5423 21.4831C12.8353 22.3032 4.27535 22.5508 1.89741 21.5158C1.04263 21.144 2.64564 20.6279 3.14985 20.5196C3.6757 20.4056 3.97625 20.4268 3.97625 20.4268C3.02561 19.7571 -2.16824 21.7418 1.33805 22.3101C10.9001 23.8608 18.7687 21.6119 16.2885 20.4931Z" fill="#5382A1"/>
<path d="M6.26784 13.2125C6.26784 13.2125 1.91379 14.2467 4.72602 14.6222C5.91339 14.7812 8.28045 14.7452 10.4853 14.5604C12.2873 14.4085 14.0966 14.0853 14.0966 14.0853C14.0966 14.0853 13.4613 14.3574 13.0016 14.6713C8.58003 15.8342 0.038388 15.2932 2.49742 14.1037C4.57702 13.0985 6.26791 13.2125 6.26791 13.2125" fill="#5382A1"/>
<path d="M14.0787 17.5784C18.5735 15.2428 16.4953 12.9983 15.0448 13.3007C14.6892 13.3747 14.5307 13.4388 14.5307 13.4388C14.5307 13.4388 14.6627 13.232 14.9148 13.1426C17.7844 12.1337 19.9913 16.1181 13.9884 17.6961C13.9884 17.6962 14.058 17.634 14.0787 17.5784" fill="#5382A1"/>
<path d="M11.3688 0.0257346C11.3688 0.0257346 13.8581 2.51591 9.00787 6.34488C5.11856 9.41646 8.12098 11.1678 9.00628 13.1687C6.73599 11.1204 5.06986 9.3172 6.18767 7.63901C7.8282 5.1754 12.3731 3.98102 11.3688 0.0256653" fill="#E76F00"/>
<path d="M6.70949 23.9074C11.0239 24.1836 17.6491 23.7542 17.806 21.7127C17.806 21.7127 17.5044 22.4867 14.2404 23.1012C10.558 23.7942 6.01627 23.7133 3.32251 23.2692C3.32258 23.2692 3.87395 23.7256 6.70956 23.9074" fill="#5382A1"/>
</g>
<defs>
<clipPath id="clip0_296:5">
<rect width="17.76" height="24" fill="white" transform="translate(0.0999756)"/>
</clipPath>
</defs>
</svg>
