<svg width="42" height="42" viewBox="0 0 42 42" fill="none" xmlns="http://www.w3.org/2000/svg">
<path d="M37.5 0H4.5C2.01469 0 0 2.01469 0 4.5V37.5C0 39.9853 2.01469 42 4.5 42H37.5C39.9853 42 42 39.9853 42 37.5V4.5C42 2.01469 39.9853 0 37.5 0ZM16.6985 21.5723C8.19647 15.4019 8.28309 15.3863 6 13.6094V11.25C6 10.0073 7.00734 9 8.25 9H33.75C34.9927 9 36 10.0073 36 11.25V13.6094C33.7152 15.3878 33.8031 15.4023 25.3015 21.5723C24.3172 22.29 22.3585 24.0211 21 23.9999C19.6403 24.0203 17.6843 22.2911 16.6985 21.5723ZM36 17.4164V30.75C36 31.9927 34.9927 33 33.75 33H8.25C7.00734 33 6 31.9927 6 30.75V17.4164C7.30856 18.4283 9.12459 19.7823 14.9347 23.999C16.2623 24.9684 18.4948 27.0126 20.9997 26.9999C23.5204 27.0125 25.7844 24.9336 27.0672 23.9976C32.8758 19.7821 34.6914 18.4282 36 17.4164Z" fill="#1019FA"/>
</svg>
