<svg width="25" height="24" viewBox="0 0 25 24" fill="none" xmlns="http://www.w3.org/2000/svg">
<g clip-path="url(#clip0_296:2)">
<path d="M11.948 0.0067749C5.84615 0.0067749 6.22714 2.65289 6.22714 2.65289L6.23392 5.39435H12.0568V6.21741H3.92117C3.92117 6.21741 0.0166016 5.77459 0.0166016 11.9313C0.0166016 18.0882 3.4246 17.8698 3.4246 17.8698H5.45848V15.0128C5.45848 15.0128 5.34884 11.6048 8.81208 11.6048H14.5873C14.5873 11.6048 17.832 11.6572 17.832 8.46889V3.19718C17.832 3.19718 18.3248 0.0067749 11.948 0.0067749ZM8.73726 1.85035C8.87486 1.85023 9.01113 1.87724 9.13828 1.92984C9.26543 1.98244 9.38096 2.05959 9.47825 2.15689C9.57555 2.25419 9.6527 2.36971 9.7053 2.49686C9.7579 2.62401 9.78491 2.76028 9.78479 2.89788C9.78491 3.03548 9.7579 3.17175 9.7053 3.2989C9.6527 3.42605 9.57555 3.54158 9.47825 3.63887C9.38096 3.73617 9.26543 3.81332 9.13828 3.86592C9.01113 3.91852 8.87486 3.94553 8.73726 3.94541C8.59966 3.94553 8.46339 3.91852 8.33624 3.86592C8.20909 3.81332 8.09357 3.73617 7.99627 3.63887C7.89897 3.54158 7.82182 3.42605 7.76922 3.2989C7.71662 3.17175 7.68961 3.03548 7.68973 2.89788C7.68961 2.76028 7.71662 2.62401 7.76922 2.49686C7.82182 2.36971 7.89897 2.25419 7.99627 2.15689C8.09357 2.05959 8.20909 1.98244 8.33624 1.92984C8.46339 1.87724 8.59966 1.85023 8.73726 1.85035V1.85035Z" fill="url(#paint0_linear_296:2)"/>
<path d="M12.1212 23.9177C18.2231 23.9177 17.8421 21.2716 17.8421 21.2716L17.8353 18.5303H12.0123V17.7072H20.148C20.148 17.7072 24.0525 18.15 24.0525 11.9931C24.0525 5.83633 20.6445 6.05468 20.6445 6.05468H18.6107V8.91162C18.6107 8.91162 18.7203 12.3196 15.2571 12.3196H9.4818C9.4818 12.3196 6.2371 12.2672 6.2371 15.4556V20.7274C6.2371 20.7274 5.74439 23.9177 12.1211 23.9177H12.1212ZM15.332 22.0744C15.1944 22.0745 15.0581 22.0475 14.931 21.9949C14.8038 21.9423 14.6883 21.8651 14.591 21.7678C14.4937 21.6705 14.4165 21.555 14.3639 21.4278C14.3113 21.3007 14.2843 21.1644 14.2844 21.0268C14.2843 20.8892 14.3113 20.7529 14.3639 20.6258C14.4165 20.4986 14.4936 20.3831 14.5909 20.2858C14.6882 20.1885 14.8038 20.1113 14.9309 20.0587C15.0581 20.0061 15.1944 19.9791 15.332 19.9792C15.4696 19.9791 15.6058 20.0061 15.733 20.0587C15.8601 20.1113 15.9757 20.1884 16.073 20.2857C16.1703 20.383 16.2474 20.4986 16.3 20.6257C16.3526 20.7529 16.3796 20.8891 16.3795 21.0267C16.3796 21.1643 16.3526 21.3006 16.3 21.4277C16.2474 21.5549 16.1703 21.6704 16.073 21.7677C15.9757 21.865 15.8601 21.9422 15.733 21.9948C15.6058 22.0474 15.4696 22.0744 15.332 22.0743V22.0744Z" fill="url(#paint1_linear_296:2)"/>
</g>
<defs>
<linearGradient id="paint0_linear_296:2" x1="2.32645" y1="2.15742" x2="14.2379" y2="13.9501" gradientUnits="userSpaceOnUse">
<stop stop-color="#387EB8"/>
<stop offset="1" stop-color="#366994"/>
</linearGradient>
<linearGradient id="paint1_linear_296:2" x1="9.6377" y1="9.72996" x2="22.4293" y2="21.8222" gradientUnits="userSpaceOnUse">
<stop stop-color="#FFE052"/>
<stop offset="1" stop-color="#FFC331"/>
</linearGradient>
<clipPath id="clip0_296:2">
<rect width="24.1" height="24" fill="white"/>
</clipPath>
</defs>
</svg>
