<svg width="25" height="25" viewBox="0 0 25 25" fill="none" xmlns="http://www.w3.org/2000/svg">
<g clip-path="url(#clip0_204:131)">
<path d="M11.9995 0.88797C5.3723 0.949843 0.0432997 6.37236 0.0967135 12.9996C0.150127 19.6269 5.56572 24.9491 12.1929 24.8872C18.8201 24.8253 24.1491 19.4028 24.0957 12.7755C24.0423 6.1483 18.6267 0.826097 11.9995 0.88797Z" fill="#1019FA"/>
<path d="M17.8939 7.73604L15.8377 18.5622C15.8377 18.5622 15.544 19.3144 14.7168 18.9624L9.74042 15.2167L7.93499 14.3642L4.89935 13.3733C4.89935 13.3733 4.43341 13.2128 4.38552 12.8535C4.33762 12.4942 4.90565 12.2941 4.90565 12.2941L16.9023 7.46066C16.9023 7.46066 17.888 7.01681 17.8938 7.73623" fill="white"/>
<path d="M9.38679 18.5009C9.38679 18.5009 9.24231 18.4888 9.05773 17.9208C8.87343 17.353 7.93497 14.3641 7.93497 14.3641L15.1666 9.6801C15.1666 9.6801 15.5843 9.42138 15.5713 9.67632C15.5713 9.67632 15.6466 9.72062 15.4234 9.93253C15.2004 10.1445 9.75477 15.1265 9.75477 15.1265" fill="#D2E5F1"/>
<path d="M11.6485 16.6527L9.7067 18.4546C9.7067 18.4546 9.55464 18.5721 9.38681 18.5009L9.73472 15.1844" fill="#B5CFE4"/>
</g>
<defs>
<clipPath id="clip0_204:131">
<rect width="24" height="24" fill="white" transform="matrix(0.999956 -0.00933586 0.00805946 0.999968 0 1)"/>
</clipPath>
</defs>
</svg>
