<svg width="25" height="24" viewBox="0 0 25 24" fill="none" xmlns="http://www.w3.org/2000/svg">
<path d="M22.6175 3.77251L18.293 1.69051C18.0488 1.57275 17.774 1.5339 17.5067 1.57932C17.2394 1.62474 16.9929 1.75219 16.8013 1.94401L2.64501 14.85C2.47325 15.0059 2.37044 15.2236 2.35919 15.4552C2.34793 15.6869 2.42916 15.9135 2.58501 16.0853C2.60376 16.1055 2.62251 16.125 2.64276 16.143L3.79851 17.193C3.94953 17.3305 4.14392 17.4107 4.34793 17.4197C4.55194 17.4288 4.75267 17.3661 4.91526 17.2425L21.9665 4.31251C22.0953 4.21478 22.2488 4.15493 22.4098 4.13972C22.5707 4.1245 22.7327 4.15452 22.8776 4.22639C23.0224 4.29825 23.1443 4.40912 23.2295 4.5465C23.3147 4.68388 23.3599 4.84233 23.36 5.00401V4.95376C23.36 4.70693 23.2903 4.46513 23.1589 4.25615C23.0276 4.04718 22.8399 3.87954 22.6175 3.77251V3.77251Z" fill="#0065A9"/>
<path d="M22.6175 20.2275L18.293 22.3103C18.0487 22.4277 17.774 22.4663 17.5068 22.4209C17.2396 22.3755 16.993 22.2483 16.8013 22.0568L2.64501 9.15C2.47325 8.99415 2.37044 8.77646 2.35919 8.5448C2.34793 8.31315 2.42916 8.08651 2.58501 7.91475C2.60376 7.8945 2.62251 7.875 2.64276 7.857L3.79851 6.807C3.94968 6.66897 4.14452 6.58841 4.34903 6.57936C4.55354 6.57031 4.75473 6.63336 4.91751 6.7575L21.9665 19.6875C22.0953 19.7852 22.2488 19.8451 22.4098 19.8603C22.5707 19.8755 22.7327 19.8455 22.8776 19.7736C23.0224 19.7018 23.1443 19.5909 23.2295 19.4535C23.3147 19.3161 23.3599 19.1577 23.36 18.996V19.05C23.3592 19.2962 23.2891 19.5371 23.1578 19.7454C23.0265 19.9536 22.8393 20.1207 22.6175 20.2275V20.2275Z" fill="#007ACC"/>
<path d="M18.293 22.3102C18.0487 22.4277 17.774 22.4663 17.5067 22.4209C17.2395 22.3755 16.993 22.2483 16.8012 22.0568C16.9089 22.163 17.0456 22.2352 17.1941 22.2641C17.3427 22.2931 17.4964 22.2776 17.6362 22.2195C17.7759 22.1615 17.8954 22.0634 17.9797 21.9378C18.064 21.8121 18.1093 21.6643 18.11 21.513V2.487C18.1101 2.33497 18.0651 2.18632 17.9807 2.05988C17.8962 1.93344 17.7762 1.83491 17.6357 1.77676C17.4952 1.71861 17.3407 1.70346 17.1916 1.73324C17.0425 1.76301 16.9056 1.83636 16.7982 1.944C16.9899 1.75226 17.2364 1.6248 17.5036 1.57925C17.7708 1.5337 18.0456 1.57231 18.29 1.68975L22.6137 3.76875C22.8368 3.87525 23.0253 4.04267 23.1573 4.25168C23.2894 4.46069 23.3596 4.70277 23.36 4.95V19.05C23.36 19.297 23.2903 19.5391 23.1588 19.7482C23.0273 19.9573 22.8394 20.125 22.6167 20.232L18.293 22.3102Z" fill="#1F9CF0"/>
</svg>
