<svg width="24" height="24" viewBox="0 0 24 24" fill="none" xmlns="http://www.w3.org/2000/svg">
<path d="M16.0301 9.88H13.5251V9.258H16.0311V9.881L16.0301 9.88ZM11.8571 12.433C12.0191 12.683 12.0991 12.987 12.0991 13.344C12.0991 13.714 12.0091 14.044 11.8231 14.337C11.6992 14.5428 11.5336 14.7204 11.3369 14.8584C11.1402 14.9963 10.9168 15.0916 10.6811 15.138C10.3917 15.1959 10.0972 15.224 9.80212 15.222H7.00012V9H10.0051C10.7621 9.012 11.2991 9.232 11.6161 9.663C11.8061 9.927 11.9011 10.244 11.9011 10.613C11.9011 10.993 11.8061 11.298 11.6131 11.529C11.5071 11.659 11.3491 11.777 11.1401 11.883C11.4561 11.999 11.6961 12.181 11.8571 12.433V12.433ZM8.43512 11.453H9.75212C10.0221 11.453 10.2411 11.402 10.4091 11.299C10.5781 11.196 10.6621 11.014 10.6621 10.752C10.6621 10.462 10.5511 10.27 10.3281 10.178C10.0899 10.1066 9.84176 10.0736 9.59312 10.08H8.43512V11.453V11.453ZM10.7891 13.255C10.7891 12.932 10.6561 12.709 10.3931 12.589C10.2451 12.521 10.0371 12.486 9.77112 12.483H8.43512V14.141H9.75012C10.0201 14.141 10.2301 14.106 10.3801 14.032C10.6521 13.897 10.7891 13.639 10.7891 13.255ZM16.9601 12.243C16.9901 12.447 17.0041 12.742 16.9991 13.128H13.7541C13.7721 13.576 13.9261 13.889 14.2201 14.068C14.3961 14.181 14.6101 14.236 14.8621 14.236C15.1271 14.236 15.3421 14.169 15.5091 14.031C15.6086 13.9461 15.6898 13.842 15.7481 13.725H16.9381C16.9061 13.99 16.7631 14.258 16.5061 14.531C16.1061 14.964 15.5481 15.181 14.8291 15.181C14.2577 15.1884 13.7019 14.9944 13.2591 14.633C12.8071 14.267 12.5791 13.673 12.5791 12.848C12.5791 12.075 12.7841 11.483 13.1931 11.071C13.6031 10.658 14.1341 10.453 14.7881 10.453C15.1751 10.453 15.5241 10.522 15.8361 10.661C16.1461 10.801 16.4031 11.02 16.6051 11.321C16.7881 11.587 16.9051 11.893 16.9601 12.243V12.243ZM15.7901 12.359C15.7681 12.049 15.6641 11.815 15.4781 11.655C15.2861 11.4915 15.0402 11.4052 14.7881 11.413C14.4881 11.413 14.2571 11.5 14.0921 11.669C13.9271 11.839 13.8241 12.069 13.7821 12.359H15.7901V12.359Z" fill="#1019FA"/>
<path d="M6.00012 4C5.46969 4 4.96098 4.21071 4.58591 4.58579C4.21084 4.96086 4.00012 5.46957 4.00012 6V18C4.00012 18.5304 4.21084 19.0391 4.58591 19.4142C4.96098 19.7893 5.46969 20 6.00012 20H18.0001C18.5306 20 19.0393 19.7893 19.4143 19.4142C19.7894 19.0391 20.0001 18.5304 20.0001 18V6C20.0001 5.46957 19.7894 4.96086 19.4143 4.58579C19.0393 4.21071 18.5306 4 18.0001 4H6.00012ZM6.00012 2H18.0001C19.061 2 20.0784 2.42143 20.8285 3.17157C21.5787 3.92172 22.0001 4.93913 22.0001 6V18C22.0001 19.0609 21.5787 20.0783 20.8285 20.8284C20.0784 21.5786 19.061 22 18.0001 22H6.00012C4.93926 22 3.92184 21.5786 3.17169 20.8284C2.42155 20.0783 2.00012 19.0609 2.00012 18V6C2.00012 4.93913 2.42155 3.92172 3.17169 3.17157C3.92184 2.42143 4.93926 2 6.00012 2V2Z" fill="#1019FA"/>
</svg>
